HIERARCHY
ROOT Hips
{
    OFFSET 0.000000 0.000000 0.000000
    CHANNELS 6 Xposition Yposition Zposition Zrotation Xrotation Yrotation
    JOINT Spine
    {
        OFFSET -0.000000 7.246840 0.000000
        CHANNELS 3 Zrotation Xrotation Yrotation
        JOINT Spine1
        {
            OFFSET -0.000000 20.289354 0.000000
            CHANNELS 3 Zrotation Xrotation Yrotation
            JOINT Neck
            {
                OFFSET -0.000000 20.206032 1.836912
                CHANNELS 3 Zrotation Xrotation Yrotation
                JOINT Head
                {
                    OFFSET -0.000000 12.372654 -1.767522
                    CHANNELS 3 Zrotation Xrotation Yrotation
                    End Site
                    {
                        OFFSET -0.000000 22.094025 0.000000
                    }
                }
            }
            JOINT LeftShoulder
            {
                OFFSET 3.465871 17.201674 -0.568930
                CHANNELS 3 Zrotation Xrotation Yrotation
                JOINT LeftArm
                {
                    OFFSET 14.070313 0.000000 0.000000
                    CHANNELS 3 Zrotation Xrotation Yrotation
                    JOINT LeftForeArm
                    {
                        OFFSET 26.549477 0.000000 0.000000
                        CHANNELS 3 Zrotation Xrotation Yrotation
                        JOINT LeftHand
                        {
                            OFFSET 18.880413 0.000000 0.000000
                            CHANNELS 3 Zrotation Xrotation Yrotation
                            End Site
                            {
                                OFFSET 13.256415 0.000000 0.000000
                            }
                        }
                    }
                }
            }
            JOINT RightShoulder
            {
                OFFSET -3.526370 17.201674 -0.568930
                CHANNELS 3 Zrotation Xrotation Yrotation
                JOINT RightArm
                {
                    OFFSET -14.070313 0.000000 0.000000
                    CHANNELS 3 Zrotation Xrotation Yrotation
                    JOINT RightForeArm
                    {
                        OFFSET -26.549477 0.000000 0.000000
                        CHANNELS 3 Zrotation Xrotation Yrotation
                        JOINT RightHand
                        {
                            OFFSET -18.880413 0.000000 0.000000
                            CHANNELS 3 Zrotation Xrotation Yrotation
                            End Site
                            {
                                OFFSET -13.256415 0.000000 0.000000
                            }
                        }
                    }
                }
            }
        }
    }
    JOINT LeftUpLeg
    {
        OFFSET 8.837609 0.000000 0.000000
        CHANNELS 3 Zrotation Xrotation Yrotation
        JOINT LeftLeg
        {
            OFFSET -0.000000 -41.345005 0.000000
            CHANNELS 3 Zrotation Xrotation Yrotation
            JOINT LeftFoot
            {
                OFFSET -0.000000 -35.500874 0.000000
                CHANNELS 3 Zrotation Xrotation Yrotation
                JOINT LeftToeBase
                {
                    OFFSET -0.000000 -5.744446 13.256415
                    CHANNELS 3 Zrotation Xrotation Yrotation
                    End Site
                    {
                        OFFSET -0.000000 0.000000 3.535044
                    }
                }
            }
        }
    }
    JOINT RightUpLeg
    {
        OFFSET -8.837609 0.000000 0.000000
        CHANNELS 3 Zrotation Xrotation Yrotation
        JOINT RightLeg
        {
            OFFSET -0.000000 -41.345005 0.000000
            CHANNELS 3 Zrotation Xrotation Yrotation
            JOINT RightFoot
            {
                OFFSET -0.000000 -35.500874 0.000000
                CHANNELS 3 Zrotation Xrotation Yrotation
                JOINT RightToeBase
                {
                    OFFSET -0.000000 -5.744446 13.256415
                    CHANNELS 3 Zrotation Xrotation Yrotation
                    End Site
                    {
                        OFFSET -0.000000 0.000000 3.535044
                    }
                }
            }
        }
    }
}
MOTION
Frames:    7
Frame Time:    0.010000
0.551902    82.147598    -16.559759    3.622362    3.149554    1.399772    -4.284369    -13.168227    -1.034341    0.940471    2.262840    -0.558090    1.422277    34.090111    -2.131218    0.875394    -12.437359    -1.746553    20.071163    2.092126    6.807336    -27.495661    6.903158    -12.643708    7.921252    -10.753796    -11.133258    -27.494381    -9.244352    -3.103677    -16.780602    -0.675222    12.808326    20.912098    9.618777    8.064230    -4.451164    -6.237609    0.927037    15.307058    -4.046723    15.995936    -1.255858    5.760545    -0.443225    -1.845046    -9.008216    -5.888152    4.138403    1.405707    0.003302    -1.494633    -1.521080    2.111669    -10.230547    5.158497    -0.494478    8.124415    -9.867195    2.681902    -1.010031    -1.184192    -10.185789    -0.573027    1.182583    1.014735    
0.557154    82.147720    -16.555370    3.623852    3.147018    1.391566    -4.281872    -13.174465    -1.036098    0.939009    2.280693    -0.560127    1.434726    34.076450    -2.128891    0.872382    -12.440624    -1.742811    20.078514    2.089442    6.804707    -27.501551    6.871685    -12.624015    7.899736    -10.758905    -11.127877    -27.513742    -9.247087    -3.121327    -16.773643    -0.671376    12.800589    20.877239    9.645903    8.092563    -4.349063    -6.330561    0.968171    14.898416    -4.210861    15.895840    -1.262006    5.769413    -0.452579    -1.843680    -9.016242    -5.860582    4.143570    1.410789    -0.004227    -1.492578    -1.521407    2.108770    -10.232959    5.160125    -0.506174    8.117504    -9.864319    2.699790    -1.006396    -1.186372    -10.192151    -0.586013    1.177869    1.037782    
0.560820    82.148483    -16.552742    3.625821    3.144854    1.385067    -4.282426    -13.177232    -1.041216    0.943028    2.293680    -0.565232    1.429309    34.084789    -2.110090    0.884150    -12.482681    -1.720899    20.073395    2.098920    6.820203    -27.484385    6.847781    -12.633766    7.890620    -10.755173    -11.124703    -27.606907    -9.256579    -3.060387    -16.770348    -0.684600    12.800383    20.835379    9.705666    8.114840    -4.338510    -6.287330    0.943244    14.899422    -4.174139    15.852429    -1.267080    5.769607    -0.425573    -1.847674    -9.003803    -5.879341    4.122446    1.404377    -0.012992    -1.494288    -1.546065    2.111506    -10.238832    5.164531    -0.487703    8.118475    -9.869692    2.676402    -0.989313    -1.189011    -10.190815    -0.592982    1.204864    1.049825    
0.566352    82.148758    -16.549656    3.625310    3.146533    1.372618    -4.276051    -13.174423    -1.044032    0.938769    2.284272    -0.568747    1.447077    34.095947    -2.101583    0.878096    -12.504270    -1.710062    20.079443    2.108572    6.838334    -27.471342    6.847080    -12.644928    7.906708    -10.736165    -11.115617    -27.755894    -9.252427    -2.978189    -16.779020    -0.692484    12.818973    20.815115    9.779902    8.112054    -4.333937    -6.271631    0.920727    14.924138    -4.157845    15.836980    -1.271735    5.770598    -0.424459    -1.840469    -9.008189    -5.867896    4.130296    1.405483    -0.021689    -1.518394    -1.538080    2.145459    -10.244100    5.177418    -0.352933    8.100987    -9.922449    2.541998    -0.978778    -1.168217    -10.171183    -0.577575    1.205177    1.022546    
0.570566    82.149086    -16.545979    3.629207    3.149397    1.365275    -4.274647    -13.175549    -1.048342    0.939319    2.279410    -0.573119    1.426185    34.113857    -2.099798    0.911496    -12.534688    -1.703081    20.074821    2.107879    6.848761    -27.450191    6.869601    -12.638870    7.931607    -10.716378    -11.125393    -27.921112    -9.253704    -2.861265    -16.792418    -0.687174    12.825724    20.787312    9.841153    8.119591    -4.327703    -6.291771    0.914976    14.959394    -4.176235    15.815469    -1.278386    5.771199    -0.434233    -1.854072    -9.001113    -5.792817    4.156820    1.395577    -0.077398    -1.493066    -1.535813    2.109646    -10.248443    5.157568    -0.498605    8.118385    -9.861803    2.696788    -0.982055    -1.187660    -10.180242    -0.580492    1.201347    1.027750    
0.573543    82.149406    -16.543144    3.625990    3.151140    1.359266    -4.264582    -13.167574    -1.048816    0.927475    2.262393    -0.574774    1.412735    34.111198    -2.081233    0.960952    -12.528204    -1.673983    20.085505    2.124150    6.853690    -27.439310    6.871888    -12.644238    7.943467    -10.730360    -11.132285    -28.031399    -9.285226    -2.772100    -16.799259    -0.683146    12.825013    20.778221    9.849931    8.117823    -4.329848    -6.294027    0.915648    15.007440    -4.172338    15.810468    -1.275479    5.764514    -0.421298    -1.840100    -8.991626    -5.879828    4.128098    1.396394    0.005765    -1.497995    -1.535373    2.116605    -10.245364    5.173438    -0.364955    8.093269    -9.921208    2.543500    -1.010218    -1.151631    -10.146982    -0.574106    1.201989    1.016438    
0.578261    82.149384    -16.539040    3.628139    3.156421    1.350845    -4.254825    -13.172301    -1.043363    0.914327    2.257090    -0.569829    1.427578    34.122906    -2.084616    0.969397    -12.547684    -1.672407    20.099001    2.109957    6.845680    -27.444416    6.905350    -12.625906    7.953755    -10.784989    -11.125480    -28.066158    -9.338593    -2.772493    -16.805332    -0.663971    12.808596    20.769222    9.782025    8.131546    -4.333860    -6.291848    0.909799    15.044316    -4.163991    15.819062    -1.280157    5.764310    -0.421694    -1.838702    -8.990448    -5.930690    4.115805    1.400071    0.075641    -1.495454    -1.557935    2.113309    -10.250749    5.172601    -0.349380    8.087986    -9.925392    2.545302    -0.989920    -1.157021    -10.155912    -0.566938    1.207347    1.003692    
